<svg xmlns="http://www.w3.org/2000/svg" xmlns:xlink="http://www.w3.org/1999/xlink" width="1280" zoomAndPan="magnify" viewBox="0 0 960 599.999999" height="800" preserveAspectRatio="xMidYMid meet" version="1.0"><defs><g/><clipPath id="ff9ae48bc5"><path d="M 461.25 270.46875 L 498.75 270.46875 L 498.75 307.96875 L 461.25 307.96875 Z M 461.25 270.46875 " clip-rule="nonzero"/></clipPath><clipPath id="c9e9043c6f"><path d="M 480 270.46875 C 469.644531 270.46875 461.25 278.863281 461.25 289.21875 C 461.25 299.574219 469.644531 307.96875 480 307.96875 C 490.355469 307.96875 498.75 299.574219 498.75 289.21875 C 498.75 278.863281 490.355469 270.46875 480 270.46875 Z M 480 270.46875 " clip-rule="nonzero"/></clipPath><clipPath id="3d69665640"><path d="M 473.40625 283.96875 L 486.90625 283.96875 L 486.90625 294.46875 L 473.40625 294.46875 Z M 473.40625 283.96875 " clip-rule="nonzero"/></clipPath></defs><g clip-path="url(#ff9ae48bc5)"><g clip-path="url(#c9e9043c6f)"><path fill="#13072e" d="M 461.25 270.46875 L 498.75 270.46875 L 498.75 307.96875 L 461.25 307.96875 Z M 461.25 270.46875 " fill-opacity="1" fill-rule="nonzero"/></g></g><g clip-path="url(#3d69665640)"><path fill="#ffffff" d="M 481.332031 294.46875 L 486.582031 289.21875 L 481.332031 283.96875 L 480.660156 284.644531 L 484.753906 288.742188 L 473.414062 288.742188 L 473.414062 289.695312 L 484.753906 289.695312 L 480.660156 293.796875 Z M 481.332031 294.46875 " fill-opacity="1" fill-rule="nonzero"/></g><g fill="#ffffff" fill-opacity="1"><g transform="translate(91.077609, 294.639024)"><g><path d="M 13.3125 -3.3125 L 6.328125 -3.3125 L 5.203125 0 L 0.421875 0 L 7.203125 -18.71875 L 12.484375 -18.71875 L 19.25 0 L 14.421875 0 Z M 12.140625 -6.828125 L 9.8125 -13.6875 L 7.515625 -6.828125 Z M 12.140625 -6.828125 "/></g></g></g><g fill="#ffffff" fill-opacity="1"><g transform="translate(110.732714, 294.639024)"><g><path d="M 11.203125 0 L 7.3125 -7.0625 L 6.21875 -7.0625 L 6.21875 0 L 1.65625 0 L 1.65625 -18.71875 L 9.3125 -18.71875 C 10.78125 -18.71875 12.035156 -18.457031 13.078125 -17.9375 C 14.117188 -17.425781 14.894531 -16.722656 15.40625 -15.828125 C 15.925781 -14.929688 16.1875 -13.929688 16.1875 -12.828125 C 16.1875 -11.585938 15.832031 -10.476562 15.125 -9.5 C 14.425781 -8.519531 13.394531 -7.828125 12.03125 -7.421875 L 16.34375 0 Z M 6.21875 -10.296875 L 9.046875 -10.296875 C 9.878906 -10.296875 10.503906 -10.5 10.921875 -10.90625 C 11.335938 -11.3125 11.546875 -11.890625 11.546875 -12.640625 C 11.546875 -13.347656 11.335938 -13.90625 10.921875 -14.3125 C 10.503906 -14.726562 9.878906 -14.9375 9.046875 -14.9375 L 6.21875 -14.9375 Z M 6.21875 -10.296875 "/></g></g></g><g fill="#ffffff" fill-opacity="1"><g transform="translate(128.120953, 294.639024)"><g><path d="M 6.21875 -15.0625 L 6.21875 -11.28125 L 12.328125 -11.28125 L 12.328125 -7.765625 L 6.21875 -7.765625 L 6.21875 -3.65625 L 13.125 -3.65625 L 13.125 0 L 1.65625 0 L 1.65625 -18.71875 L 13.125 -18.71875 L 13.125 -15.0625 Z M 6.21875 -15.0625 "/></g></g></g><g fill="#ffffff" fill-opacity="1"><g transform="translate(142.548928, 294.639024)"><g/></g></g><g fill="#ffffff" fill-opacity="1"><g transform="translate(148.20277, 294.639024)"><g><path d="M 17.703125 -18.71875 L 11.234375 -6.1875 L 11.234375 0 L 6.671875 0 L 6.671875 -6.1875 L 0.1875 -18.71875 L 5.359375 -18.71875 L 8.984375 -10.875 L 12.59375 -18.71875 Z M 17.703125 -18.71875 "/></g></g></g><g fill="#ffffff" fill-opacity="1"><g transform="translate(166.097721, 294.639024)"><g><path d="M 10.515625 0.1875 C 8.753906 0.1875 7.140625 -0.21875 5.671875 -1.03125 C 4.203125 -1.851562 3.035156 -3 2.171875 -4.46875 C 1.304688 -5.9375 0.875 -7.585938 0.875 -9.421875 C 0.875 -11.242188 1.304688 -12.882812 2.171875 -14.34375 C 3.035156 -15.800781 4.203125 -16.9375 5.671875 -17.75 C 7.140625 -18.570312 8.753906 -18.984375 10.515625 -18.984375 C 12.273438 -18.984375 13.882812 -18.570312 15.34375 -17.75 C 16.8125 -16.9375 17.96875 -15.800781 18.8125 -14.34375 C 19.65625 -12.882812 20.078125 -11.242188 20.078125 -9.421875 C 20.078125 -7.585938 19.648438 -5.9375 18.796875 -4.46875 C 17.941406 -3 16.785156 -1.851562 15.328125 -1.03125 C 13.878906 -0.21875 12.273438 0.1875 10.515625 0.1875 Z M 10.515625 -3.96875 C 12.003906 -3.96875 13.195312 -4.46875 14.09375 -5.46875 C 14.988281 -6.46875 15.4375 -7.785156 15.4375 -9.421875 C 15.4375 -11.066406 14.988281 -12.382812 14.09375 -13.375 C 13.195312 -14.363281 12.003906 -14.859375 10.515625 -14.859375 C 8.992188 -14.859375 7.785156 -14.367188 6.890625 -13.390625 C 5.992188 -12.410156 5.546875 -11.085938 5.546875 -9.421875 C 5.546875 -7.765625 5.992188 -6.441406 6.890625 -5.453125 C 7.785156 -4.460938 8.992188 -3.96875 10.515625 -3.96875 Z M 10.515625 -3.96875 "/></g></g></g><g fill="#ffffff" fill-opacity="1"><g transform="translate(187.059617, 294.639024)"><g><path d="M 6.140625 -18.71875 L 6.140625 -7.515625 C 6.140625 -6.398438 6.410156 -5.539062 6.953125 -4.9375 C 7.503906 -4.332031 8.316406 -4.03125 9.390625 -4.03125 C 10.453125 -4.03125 11.269531 -4.332031 11.84375 -4.9375 C 12.414062 -5.539062 12.703125 -6.398438 12.703125 -7.515625 L 12.703125 -18.71875 L 17.25 -18.71875 L 17.25 -7.546875 C 17.25 -5.878906 16.894531 -4.46875 16.1875 -3.3125 C 15.476562 -2.15625 14.519531 -1.28125 13.3125 -0.6875 C 12.113281 -0.101562 10.78125 0.1875 9.3125 0.1875 C 7.832031 0.1875 6.507812 -0.0976562 5.34375 -0.671875 C 4.175781 -1.253906 3.253906 -2.128906 2.578125 -3.296875 C 1.910156 -4.460938 1.578125 -5.878906 1.578125 -7.546875 L 1.578125 -18.71875 Z M 6.140625 -18.71875 "/></g></g></g><g fill="#ffffff" fill-opacity="1"><g transform="translate(205.861312, 294.639024)"><g/></g></g><g fill="#ffffff" fill-opacity="1"><g transform="translate(211.515155, 294.639024)"><g><path d="M 6.21875 -3.515625 L 12.1875 -3.515625 L 12.1875 0 L 1.65625 0 L 1.65625 -18.71875 L 6.21875 -18.71875 Z M 6.21875 -3.515625 "/></g></g></g><g fill="#ffffff" fill-opacity="1"><g transform="translate(224.236309, 294.639024)"><g><path d="M 10.515625 0.1875 C 8.753906 0.1875 7.140625 -0.21875 5.671875 -1.03125 C 4.203125 -1.851562 3.035156 -3 2.171875 -4.46875 C 1.304688 -5.9375 0.875 -7.585938 0.875 -9.421875 C 0.875 -11.242188 1.304688 -12.882812 2.171875 -14.34375 C 3.035156 -15.800781 4.203125 -16.9375 5.671875 -17.75 C 7.140625 -18.570312 8.753906 -18.984375 10.515625 -18.984375 C 12.273438 -18.984375 13.882812 -18.570312 15.34375 -17.75 C 16.8125 -16.9375 17.96875 -15.800781 18.8125 -14.34375 C 19.65625 -12.882812 20.078125 -11.242188 20.078125 -9.421875 C 20.078125 -7.585938 19.648438 -5.9375 18.796875 -4.46875 C 17.941406 -3 16.785156 -1.851562 15.328125 -1.03125 C 13.878906 -0.21875 12.273438 0.1875 10.515625 0.1875 Z M 10.515625 -3.96875 C 12.003906 -3.96875 13.195312 -4.46875 14.09375 -5.46875 C 14.988281 -6.46875 15.4375 -7.785156 15.4375 -9.421875 C 15.4375 -11.066406 14.988281 -12.382812 14.09375 -13.375 C 13.195312 -14.363281 12.003906 -14.859375 10.515625 -14.859375 C 8.992188 -14.859375 7.785156 -14.367188 6.890625 -13.390625 C 5.992188 -12.410156 5.546875 -11.085938 5.546875 -9.421875 C 5.546875 -7.765625 5.992188 -6.441406 6.890625 -5.453125 C 7.785156 -4.460938 8.992188 -3.96875 10.515625 -3.96875 Z M 10.515625 -3.96875 "/></g></g></g><g fill="#ffffff" fill-opacity="1"><g transform="translate(245.198205, 294.639024)"><g><path d="M 10.515625 0.1875 C 8.753906 0.1875 7.140625 -0.21875 5.671875 -1.03125 C 4.203125 -1.851562 3.035156 -3 2.171875 -4.46875 C 1.304688 -5.9375 0.875 -7.585938 0.875 -9.421875 C 0.875 -11.242188 1.304688 -12.882812 2.171875 -14.34375 C 3.035156 -15.800781 4.203125 -16.9375 5.671875 -17.75 C 7.140625 -18.570312 8.753906 -18.984375 10.515625 -18.984375 C 12.273438 -18.984375 13.882812 -18.570312 15.34375 -17.75 C 16.8125 -16.9375 17.96875 -15.800781 18.8125 -14.34375 C 19.65625 -12.882812 20.078125 -11.242188 20.078125 -9.421875 C 20.078125 -7.585938 19.648438 -5.9375 18.796875 -4.46875 C 17.941406 -3 16.785156 -1.851562 15.328125 -1.03125 C 13.878906 -0.21875 12.273438 0.1875 10.515625 0.1875 Z M 10.515625 -3.96875 C 12.003906 -3.96875 13.195312 -4.46875 14.09375 -5.46875 C 14.988281 -6.46875 15.4375 -7.785156 15.4375 -9.421875 C 15.4375 -11.066406 14.988281 -12.382812 14.09375 -13.375 C 13.195312 -14.363281 12.003906 -14.859375 10.515625 -14.859375 C 8.992188 -14.859375 7.785156 -14.367188 6.890625 -13.390625 C 5.992188 -12.410156 5.546875 -11.085938 5.546875 -9.421875 C 5.546875 -7.765625 5.992188 -6.441406 6.890625 -5.453125 C 7.785156 -4.460938 8.992188 -3.96875 10.515625 -3.96875 Z M 10.515625 -3.96875 "/></g></g></g><g fill="#ffffff" fill-opacity="1"><g transform="translate(266.1601, 294.639024)"><g><path d="M 12.515625 0 L 6.21875 -8.265625 L 6.21875 0 L 1.65625 0 L 1.65625 -18.71875 L 6.21875 -18.71875 L 6.21875 -10.515625 L 12.453125 -18.71875 L 17.8125 -18.71875 L 10.5625 -9.546875 L 18.078125 0 Z M 12.515625 0 "/></g></g></g><g fill="#ffffff" fill-opacity="1"><g transform="translate(284.748447, 294.639024)"><g><path d="M 6.21875 -18.71875 L 6.21875 0 L 1.65625 0 L 1.65625 -18.71875 Z M 6.21875 -18.71875 "/></g></g></g><g fill="#ffffff" fill-opacity="1"><g transform="translate(292.615823, 294.639024)"><g><path d="M 18.40625 0 L 13.84375 0 L 6.21875 -11.546875 L 6.21875 0 L 1.65625 0 L 1.65625 -18.71875 L 6.21875 -18.71875 L 13.84375 -7.125 L 13.84375 -18.71875 L 18.40625 -18.71875 Z M 18.40625 0 "/></g></g></g><g fill="#ffffff" fill-opacity="1"><g transform="translate(312.67096, 294.639024)"><g><path d="M 14.078125 -12.796875 C 13.742188 -13.421875 13.257812 -13.894531 12.625 -14.21875 C 12 -14.550781 11.257812 -14.71875 10.40625 -14.71875 C 8.925781 -14.71875 7.738281 -14.234375 6.84375 -13.265625 C 5.957031 -12.296875 5.515625 -11.003906 5.515625 -9.390625 C 5.515625 -7.660156 5.984375 -6.3125 6.921875 -5.34375 C 7.859375 -4.375 9.144531 -3.890625 10.78125 -3.890625 C 11.894531 -3.890625 12.835938 -4.171875 13.609375 -4.734375 C 14.390625 -5.304688 14.957031 -6.128906 15.3125 -7.203125 L 9.515625 -7.203125 L 9.515625 -10.5625 L 19.4375 -10.5625 L 19.4375 -6.328125 C 19.101562 -5.179688 18.53125 -4.117188 17.71875 -3.140625 C 16.914062 -2.171875 15.890625 -1.378906 14.640625 -0.765625 C 13.398438 -0.160156 11.992188 0.140625 10.421875 0.140625 C 8.578125 0.140625 6.929688 -0.265625 5.484375 -1.078125 C 4.035156 -1.890625 2.90625 -3.015625 2.09375 -4.453125 C 1.28125 -5.890625 0.875 -7.535156 0.875 -9.390625 C 0.875 -11.234375 1.28125 -12.878906 2.09375 -14.328125 C 2.90625 -15.785156 4.03125 -16.914062 5.46875 -17.71875 C 6.90625 -18.53125 8.550781 -18.9375 10.40625 -18.9375 C 12.644531 -18.9375 14.53125 -18.394531 16.0625 -17.3125 C 17.601562 -16.226562 18.625 -14.722656 19.125 -12.796875 Z M 14.078125 -12.796875 "/></g></g></g><g fill="#ffffff" fill-opacity="1"><g transform="translate(332.992782, 294.639024)"><g/></g></g><g fill="#ffffff" fill-opacity="1"><g transform="translate(338.646611, 294.639024)"><g><path d="M 13.84375 -18.71875 L 13.84375 -15.0625 L 6.21875 -15.0625 L 6.21875 -11.125 L 11.921875 -11.125 L 11.921875 -7.578125 L 6.21875 -7.578125 L 6.21875 0 L 1.65625 0 L 1.65625 -18.71875 Z M 13.84375 -18.71875 "/></g></g></g><g fill="#ffffff" fill-opacity="1"><g transform="translate(353.234589, 294.639024)"><g><path d="M 10.515625 0.1875 C 8.753906 0.1875 7.140625 -0.21875 5.671875 -1.03125 C 4.203125 -1.851562 3.035156 -3 2.171875 -4.46875 C 1.304688 -5.9375 0.875 -7.585938 0.875 -9.421875 C 0.875 -11.242188 1.304688 -12.882812 2.171875 -14.34375 C 3.035156 -15.800781 4.203125 -16.9375 5.671875 -17.75 C 7.140625 -18.570312 8.753906 -18.984375 10.515625 -18.984375 C 12.273438 -18.984375 13.882812 -18.570312 15.34375 -17.75 C 16.8125 -16.9375 17.96875 -15.800781 18.8125 -14.34375 C 19.65625 -12.882812 20.078125 -11.242188 20.078125 -9.421875 C 20.078125 -7.585938 19.648438 -5.9375 18.796875 -4.46875 C 17.941406 -3 16.785156 -1.851562 15.328125 -1.03125 C 13.878906 -0.21875 12.273438 0.1875 10.515625 0.1875 Z M 10.515625 -3.96875 C 12.003906 -3.96875 13.195312 -4.46875 14.09375 -5.46875 C 14.988281 -6.46875 15.4375 -7.785156 15.4375 -9.421875 C 15.4375 -11.066406 14.988281 -12.382812 14.09375 -13.375 C 13.195312 -14.363281 12.003906 -14.859375 10.515625 -14.859375 C 8.992188 -14.859375 7.785156 -14.367188 6.890625 -13.390625 C 5.992188 -12.410156 5.546875 -11.085938 5.546875 -9.421875 C 5.546875 -7.765625 5.992188 -6.441406 6.890625 -5.453125 C 7.785156 -4.460938 8.992188 -3.96875 10.515625 -3.96875 Z M 10.515625 -3.96875 "/></g></g></g><g fill="#ffffff" fill-opacity="1"><g transform="translate(374.196472, 294.639024)"><g><path d="M 11.203125 0 L 7.3125 -7.0625 L 6.21875 -7.0625 L 6.21875 0 L 1.65625 0 L 1.65625 -18.71875 L 9.3125 -18.71875 C 10.78125 -18.71875 12.035156 -18.457031 13.078125 -17.9375 C 14.117188 -17.425781 14.894531 -16.722656 15.40625 -15.828125 C 15.925781 -14.929688 16.1875 -13.929688 16.1875 -12.828125 C 16.1875 -11.585938 15.832031 -10.476562 15.125 -9.5 C 14.425781 -8.519531 13.394531 -7.828125 12.03125 -7.421875 L 16.34375 0 Z M 6.21875 -10.296875 L 9.046875 -10.296875 C 9.878906 -10.296875 10.503906 -10.5 10.921875 -10.90625 C 11.335938 -11.3125 11.546875 -11.890625 11.546875 -12.640625 C 11.546875 -13.347656 11.335938 -13.90625 10.921875 -14.3125 C 10.503906 -14.726562 9.878906 -14.9375 9.046875 -14.9375 L 6.21875 -14.9375 Z M 6.21875 -10.296875 "/></g></g></g><g fill="#ffffff" fill-opacity="1"><g transform="translate(391.58471, 294.639024)"><g/></g></g><g fill="#ffffff" fill-opacity="1"><g transform="translate(397.238565, 294.639024)"><g><path d="M 15.125 -18.71875 L 15.125 -15.0625 L 10.15625 -15.0625 L 10.15625 0 L 5.59375 0 L 5.59375 -15.0625 L 0.640625 -15.0625 L 0.640625 -18.71875 Z M 15.125 -18.71875 "/></g></g></g><g fill="#ffffff" fill-opacity="1"><g transform="translate(412.999996, 294.639024)"><g><path d="M 17.875 -18.71875 L 17.875 0 L 13.3125 0 L 13.3125 -7.703125 L 6.21875 -7.703125 L 6.21875 0 L 1.65625 0 L 1.65625 -18.71875 L 6.21875 -18.71875 L 6.21875 -11.390625 L 13.3125 -11.390625 L 13.3125 -18.71875 Z M 17.875 -18.71875 "/></g></g></g><g fill="#ffffff" fill-opacity="1"><g transform="translate(432.495075, 294.639024)"><g><path d="M 6.21875 -15.0625 L 6.21875 -11.28125 L 12.328125 -11.28125 L 12.328125 -7.765625 L 6.21875 -7.765625 L 6.21875 -3.65625 L 13.125 -3.65625 L 13.125 0 L 1.65625 0 L 1.65625 -18.71875 L 13.125 -18.71875 L 13.125 -15.0625 Z M 6.21875 -15.0625 "/></g></g></g><g fill="#ffffff" fill-opacity="1"><g transform="translate(91.077609, 326.308486)"><g><path d="M 13.390625 -18.71875 L 13.390625 -5.96875 C 13.390625 -4 12.832031 -2.476562 11.71875 -1.40625 C 10.613281 -0.34375 9.117188 0.1875 7.234375 0.1875 C 5.253906 0.1875 3.664062 -0.367188 2.46875 -1.484375 C 1.28125 -2.609375 0.6875 -4.203125 0.6875 -6.265625 L 5.234375 -6.265625 C 5.234375 -5.484375 5.390625 -4.890625 5.703125 -4.484375 C 6.023438 -4.085938 6.488281 -3.890625 7.09375 -3.890625 C 7.644531 -3.890625 8.070312 -4.066406 8.375 -4.421875 C 8.675781 -4.785156 8.828125 -5.300781 8.828125 -5.96875 L 8.828125 -18.71875 Z M 13.390625 -18.71875 "/></g></g></g><g fill="#ffffff" fill-opacity="1"><g transform="translate(106.49233, 326.308486)"><g><path d="M 10.515625 0.1875 C 8.753906 0.1875 7.140625 -0.21875 5.671875 -1.03125 C 4.203125 -1.851562 3.035156 -3 2.171875 -4.46875 C 1.304688 -5.9375 0.875 -7.585938 0.875 -9.421875 C 0.875 -11.242188 1.304688 -12.882812 2.171875 -14.34375 C 3.035156 -15.800781 4.203125 -16.9375 5.671875 -17.75 C 7.140625 -18.570312 8.753906 -18.984375 10.515625 -18.984375 C 12.273438 -18.984375 13.882812 -18.570312 15.34375 -17.75 C 16.8125 -16.9375 17.96875 -15.800781 18.8125 -14.34375 C 19.65625 -12.882812 20.078125 -11.242188 20.078125 -9.421875 C 20.078125 -7.585938 19.648438 -5.9375 18.796875 -4.46875 C 17.941406 -3 16.785156 -1.851562 15.328125 -1.03125 C 13.878906 -0.21875 12.273438 0.1875 10.515625 0.1875 Z M 10.515625 -3.96875 C 12.003906 -3.96875 13.195312 -4.46875 14.09375 -5.46875 C 14.988281 -6.46875 15.4375 -7.785156 15.4375 -9.421875 C 15.4375 -11.066406 14.988281 -12.382812 14.09375 -13.375 C 13.195312 -14.363281 12.003906 -14.859375 10.515625 -14.859375 C 8.992188 -14.859375 7.785156 -14.367188 6.890625 -13.390625 C 5.992188 -12.410156 5.546875 -11.085938 5.546875 -9.421875 C 5.546875 -7.765625 5.992188 -6.441406 6.890625 -5.453125 C 7.785156 -4.460938 8.992188 -3.96875 10.515625 -3.96875 Z M 10.515625 -3.96875 "/></g></g></g><g fill="#ffffff" fill-opacity="1"><g transform="translate(127.454225, 326.308486)"><g><path d="M 12.984375 -9.609375 C 14.066406 -9.367188 14.9375 -8.828125 15.59375 -7.984375 C 16.257812 -7.140625 16.59375 -6.175781 16.59375 -5.09375 C 16.59375 -3.53125 16.046875 -2.289062 14.953125 -1.375 C 13.859375 -0.457031 12.332031 0 10.375 0 L 1.65625 0 L 1.65625 -18.71875 L 10.078125 -18.71875 C 11.984375 -18.71875 13.472656 -18.28125 14.546875 -17.40625 C 15.617188 -16.539062 16.15625 -15.363281 16.15625 -13.875 C 16.15625 -12.769531 15.863281 -11.851562 15.28125 -11.125 C 14.707031 -10.394531 13.941406 -9.890625 12.984375 -9.609375 Z M 6.21875 -11.15625 L 9.203125 -11.15625 C 9.953125 -11.15625 10.523438 -11.316406 10.921875 -11.640625 C 11.316406 -11.972656 11.515625 -12.457031 11.515625 -13.09375 C 11.515625 -13.738281 11.316406 -14.226562 10.921875 -14.5625 C 10.523438 -14.894531 9.953125 -15.0625 9.203125 -15.0625 L 6.21875 -15.0625 Z M 9.578125 -3.6875 C 10.335938 -3.6875 10.925781 -3.859375 11.34375 -4.203125 C 11.757812 -4.546875 11.96875 -5.046875 11.96875 -5.703125 C 11.96875 -6.359375 11.75 -6.875 11.3125 -7.25 C 10.882812 -7.625 10.285156 -7.8125 9.515625 -7.8125 L 6.21875 -7.8125 L 6.21875 -3.6875 Z M 9.578125 -3.6875 "/></g></g></g><g fill="#ffffff" fill-opacity="1"><g transform="translate(145.029146, 326.308486)"><g/></g></g><g fill="#ffffff" fill-opacity="1"><g transform="translate(150.682988, 326.308486)"><g><path d="M 15.921875 -12.703125 C 15.921875 -11.609375 15.671875 -10.613281 15.171875 -9.71875 C 14.671875 -8.820312 13.90625 -8.097656 12.875 -7.546875 C 11.84375 -6.992188 10.566406 -6.71875 9.046875 -6.71875 L 6.21875 -6.71875 L 6.21875 0 L 1.65625 0 L 1.65625 -18.71875 L 9.046875 -18.71875 C 10.535156 -18.71875 11.796875 -18.457031 12.828125 -17.9375 C 13.859375 -17.425781 14.628906 -16.71875 15.140625 -15.8125 C 15.660156 -14.90625 15.921875 -13.867188 15.921875 -12.703125 Z M 8.6875 -10.34375 C 9.5625 -10.34375 10.210938 -10.546875 10.640625 -10.953125 C 11.066406 -11.367188 11.28125 -11.953125 11.28125 -12.703125 C 11.28125 -13.441406 11.066406 -14.015625 10.640625 -14.421875 C 10.210938 -14.835938 9.5625 -15.046875 8.6875 -15.046875 L 6.21875 -15.046875 L 6.21875 -10.34375 Z M 8.6875 -10.34375 "/></g></g></g><g fill="#ffffff" fill-opacity="1"><g transform="translate(167.324497, 326.308486)"><g><path d="M 10.515625 0.1875 C 8.753906 0.1875 7.140625 -0.21875 5.671875 -1.03125 C 4.203125 -1.851562 3.035156 -3 2.171875 -4.46875 C 1.304688 -5.9375 0.875 -7.585938 0.875 -9.421875 C 0.875 -11.242188 1.304688 -12.882812 2.171875 -14.34375 C 3.035156 -15.800781 4.203125 -16.9375 5.671875 -17.75 C 7.140625 -18.570312 8.753906 -18.984375 10.515625 -18.984375 C 12.273438 -18.984375 13.882812 -18.570312 15.34375 -17.75 C 16.8125 -16.9375 17.96875 -15.800781 18.8125 -14.34375 C 19.65625 -12.882812 20.078125 -11.242188 20.078125 -9.421875 C 20.078125 -7.585938 19.648438 -5.9375 18.796875 -4.46875 C 17.941406 -3 16.785156 -1.851562 15.328125 -1.03125 C 13.878906 -0.21875 12.273438 0.1875 10.515625 0.1875 Z M 10.515625 -3.96875 C 12.003906 -3.96875 13.195312 -4.46875 14.09375 -5.46875 C 14.988281 -6.46875 15.4375 -7.785156 15.4375 -9.421875 C 15.4375 -11.066406 14.988281 -12.382812 14.09375 -13.375 C 13.195312 -14.363281 12.003906 -14.859375 10.515625 -14.859375 C 8.992188 -14.859375 7.785156 -14.367188 6.890625 -13.390625 C 5.992188 -12.410156 5.546875 -11.085938 5.546875 -9.421875 C 5.546875 -7.765625 5.992188 -6.441406 6.890625 -5.453125 C 7.785156 -4.460938 8.992188 -3.96875 10.515625 -3.96875 Z M 10.515625 -3.96875 "/></g></g></g><g fill="#ffffff" fill-opacity="1"><g transform="translate(188.286393, 326.308486)"><g><path d="M 11.203125 0 L 7.3125 -7.0625 L 6.21875 -7.0625 L 6.21875 0 L 1.65625 0 L 1.65625 -18.71875 L 9.3125 -18.71875 C 10.78125 -18.71875 12.035156 -18.457031 13.078125 -17.9375 C 14.117188 -17.425781 14.894531 -16.722656 15.40625 -15.828125 C 15.925781 -14.929688 16.1875 -13.929688 16.1875 -12.828125 C 16.1875 -11.585938 15.832031 -10.476562 15.125 -9.5 C 14.425781 -8.519531 13.394531 -7.828125 12.03125 -7.421875 L 16.34375 0 Z M 6.21875 -10.296875 L 9.046875 -10.296875 C 9.878906 -10.296875 10.503906 -10.5 10.921875 -10.90625 C 11.335938 -11.3125 11.546875 -11.890625 11.546875 -12.640625 C 11.546875 -13.347656 11.335938 -13.90625 10.921875 -14.3125 C 10.503906 -14.726562 9.878906 -14.9375 9.046875 -14.9375 L 6.21875 -14.9375 Z M 6.21875 -10.296875 "/></g></g></g><g fill="#ffffff" fill-opacity="1"><g transform="translate(205.674631, 326.308486)"><g><path d="M 15.125 -18.71875 L 15.125 -15.0625 L 10.15625 -15.0625 L 10.15625 0 L 5.59375 0 L 5.59375 -15.0625 L 0.640625 -15.0625 L 0.640625 -18.71875 Z M 15.125 -18.71875 "/></g></g></g><g fill="#ffffff" fill-opacity="1"><g transform="translate(221.43605, 326.308486)"><g><path d="M 13.3125 -3.3125 L 6.328125 -3.3125 L 5.203125 0 L 0.421875 0 L 7.203125 -18.71875 L 12.484375 -18.71875 L 19.25 0 L 14.421875 0 Z M 12.140625 -6.828125 L 9.8125 -13.6875 L 7.515625 -6.828125 Z M 12.140625 -6.828125 "/></g></g></g><g fill="#ffffff" fill-opacity="1"><g transform="translate(241.091156, 326.308486)"><g><path d="M 6.21875 -3.515625 L 12.1875 -3.515625 L 12.1875 0 L 1.65625 0 L 1.65625 -18.71875 L 6.21875 -18.71875 Z M 6.21875 -3.515625 "/></g></g></g><g fill="#ffffff" fill-opacity="1"><g transform="translate(253.81231, 326.308486)"><g/></g></g><g fill="#ffffff" fill-opacity="1"><g transform="translate(259.466152, 326.308486)"><g><path d="M 7.125 -19.765625 C 9.019531 -19.765625 10.539062 -19.265625 11.6875 -18.265625 C 12.84375 -17.273438 13.421875 -15.875 13.421875 -14.0625 C 13.421875 -12.382812 12.875 -11.078125 11.78125 -10.140625 C 10.6875 -9.210938 9.238281 -8.738281 7.4375 -8.71875 L 7.3125 -6.71875 L 3.3125 -6.71875 L 3.171875 -11.6875 L 4.78125 -11.6875 C 6.144531 -11.6875 7.1875 -11.851562 7.90625 -12.1875 C 8.625 -12.53125 8.984375 -13.144531 8.984375 -14.03125 C 8.984375 -14.65625 8.8125 -15.144531 8.46875 -15.5 C 8.132812 -15.851562 7.664062 -16.03125 7.0625 -16.03125 C 6.425781 -16.03125 5.929688 -15.847656 5.578125 -15.484375 C 5.222656 -15.117188 5.046875 -14.625 5.046875 -14 L 0.75 -14 C 0.707031 -15.082031 0.929688 -16.0625 1.421875 -16.9375 C 1.910156 -17.8125 2.640625 -18.5 3.609375 -19 C 4.578125 -19.507812 5.75 -19.765625 7.125 -19.765625 Z M 5.359375 0.21875 C 4.554688 0.21875 3.898438 -0.015625 3.390625 -0.484375 C 2.890625 -0.960938 2.640625 -1.546875 2.640625 -2.234375 C 2.640625 -2.953125 2.890625 -3.550781 3.390625 -4.03125 C 3.898438 -4.507812 4.554688 -4.75 5.359375 -4.75 C 6.140625 -4.75 6.785156 -4.507812 7.296875 -4.03125 C 7.804688 -3.550781 8.0625 -2.953125 8.0625 -2.234375 C 8.0625 -1.546875 7.804688 -0.960938 7.296875 -0.484375 C 6.785156 -0.015625 6.140625 0.21875 5.359375 0.21875 Z M 5.359375 0.21875 "/></g></g></g></svg>